<?xml version="1.0" standalone="no"?>
<!DOCTYPE svg PUBLIC "-//W3C//DTD SVG 20010904//EN"
 "http://www.w3.org/TR/2001/REC-SVG-20010904/DTD/svg10.dtd">
<svg version="1.0" xmlns="http://www.w3.org/2000/svg"
 width="180.000000pt" height="180.000000pt" viewBox="0 0 180.000000 180.000000"
 preserveAspectRatio="xMidYMid meet">
<metadata>
Created by potrace 1.11, written by Peter Selinger 2001-2013
</metadata>
<g transform="translate(0.000000,180.000000) scale(0.100000,-0.100000)"
fill="#000000" stroke="none">
<path d="M858 1733 c7 -3 16 -2 19 1 4 3 -2 6 -13 5 -11 0 -14 -3 -6 -6z"/>
<path d="M768 1723 c7 -3 16 -2 19 1 4 3 -2 6 -13 5 -11 0 -14 -3 -6 -6z"/>
<path d="M705 1710 c-3 -5 -2 -10 4 -10 5 0 13 5 16 10 3 6 2 10 -4 10 -5 0
-13 -4 -16 -10z"/>
<path d="M638 1694 c-42 -13 -66 -34 -38 -34 6 0 10 4 10 10 0 5 16 12 35 16
19 3 38 10 41 15 3 5 4 9 2 8 -2 0 -24 -7 -50 -15z"/>
<path d="M770 1665 c-110 -24 -249 -82 -287 -121 -8 -8 -18 -14 -22 -14 -4 0
-34 -26 -66 -57 -38 -38 -47 -44 -25 -18 49 59 135 123 218 163 92 44 107 62
32 38 -36 -12 -158 -84 -194 -115 -98 -84 -170 -180 -214 -286 -18 -44 -30
-69 -27 -55 4 14 8 35 10 46 1 12 8 30 14 41 5 11 7 23 4 27 -4 3 2 13 13 21
10 8 15 15 9 15 -5 0 -3 5 5 11 10 7 11 9 2 7 -8 -2 -13 -7 -12 -12 1 -4 -6
-13 -16 -20 -9 -7 -14 -18 -10 -24 4 -7 2 -12 -3 -12 -6 0 -11 -9 -11 -21 0
-11 -4 -17 -10 -14 -5 3 -10 1 -10 -4 0 -6 5 -11 11 -11 5 0 7 -5 4 -10 -4 -6
-11 -8 -16 -5 -5 3 -6 -1 -3 -9 3 -9 1 -16 -5 -16 -6 0 -11 -5 -11 -11 0 -5 6
-7 13 -3 6 4 9 4 5 -1 -4 -4 -3 -14 4 -22 6 -7 8 -16 4 -20 -3 -3 -6 0 -6 8 0
12 -2 11 -11 -1 -9 -13 -10 -12 -5 3 3 9 1 17 -5 17 -7 0 -9 -10 -5 -25 4 -14
2 -25 -3 -25 -5 0 -9 -8 -9 -17 0 -10 -3 -27 -7 -37 -6 -14 -5 -17 3 -12 7 4
12 3 12 -2 0 -6 -7 -13 -16 -16 -13 -5 -14 -9 -5 -20 9 -11 9 -16 0 -21 -8 -6
-7 -10 2 -16 12 -8 12 -11 0 -18 -12 -7 -12 -13 -3 -24 7 -7 9 -16 6 -20 -3
-3 -1 -15 5 -26 9 -16 9 -19 -2 -15 -8 3 -14 -2 -14 -10 0 -8 6 -12 14 -9 19
7 16 -7 -5 -24 -9 -7 -12 -13 -7 -12 23 3 36 -2 30 -11 -4 -6 -10 -8 -15 -5
-5 3 -3 -6 5 -21 7 -15 20 -31 27 -35 10 -7 10 -11 -1 -21 -10 -10 -12 -10 -7
0 8 14 -10 17 -18 3 -8 -12 23 -23 37 -14 7 4 7 0 -1 -9 -10 -13 -10 -18 -1
-24 8 -4 9 -3 5 4 -4 7 -2 12 4 12 7 0 9 -7 6 -16 -3 -9 -6 -18 -6 -21 0 -3
-6 0 -13 6 -10 8 -14 7 -14 -2 0 -8 5 -14 11 -15 26 -2 46 -9 53 -17 4 -4 2
-5 -4 -1 -8 4 -13 1 -13 -8 0 -8 -8 -20 -17 -26 -17 -11 -17 -11 -1 -6 20 6
34 -10 16 -18 -7 -3 -2 -3 12 0 18 4 32 -1 44 -15 15 -16 16 -21 5 -21 -11 0
-11 -2 1 -10 13 -9 13 -10 0 -10 -12 -1 -12 -3 2 -14 27 -20 21 -31 -6 -13
-21 14 -25 15 -30 1 -3 -8 -2 -13 3 -9 14 8 42 -6 34 -18 -3 -6 -1 -7 5 -3 6
4 16 -4 23 -16 11 -21 11 -22 -5 -9 -9 8 -19 11 -23 7 -3 -3 -1 -6 6 -6 7 0 9
-5 5 -12 -4 -7 -3 -8 4 -4 11 7 55 -29 63 -51 2 -6 13 -13 24 -15 11 -1 23 -7
26 -11 3 -5 9 -1 12 8 5 10 3 14 -5 9 -7 -5 -8 -2 -3 7 6 11 5 11 -5 2 -14
-13 -43 -6 -34 9 7 11 -25 50 -36 43 -4 -3 -11 2 -14 11 -4 10 -2 13 7 9 6 -4
1 3 -13 14 -14 11 -20 21 -13 21 6 0 15 -5 18 -10 4 -6 12 -7 18 -4 7 4 9 4 5
-1 -9 -10 9 -45 23 -45 6 0 7 6 3 13 -4 6 2 3 14 -7 25 -21 31 -36 7 -16 -16
13 -20 3 -7 -18 5 -7 16 -10 25 -6 10 3 17 1 17 -6 0 -6 5 -8 13 -4 8 5 8 2
-2 -9 -11 -14 -11 -20 0 -33 12 -15 11 -16 -6 -11 -15 5 -24 0 -34 -16 -14
-22 -14 -22 8 -3 19 17 26 15 22 -6 0 -5 4 -8 9 -8 6 0 10 8 10 17 0 15 3 14
15 -4 13 -19 19 -21 40 -11 13 6 22 16 21 22 -2 6 -1 8 1 3 3 -4 10 -4 16 0 7
4 5 -2 -3 -12 -14 -17 -13 -18 2 -12 10 3 20 2 23 -4 4 -5 11 -7 16 -4 5 4 9
1 9 -6 0 -7 3 -10 6 -6 4 3 13 -1 22 -9 11 -11 17 -12 22 -4 5 8 9 7 13 -3 4
-10 16 -14 31 -13 21 3 24 1 15 -10 -14 -17 2 -18 20 -1 11 10 13 10 7 -1 -9
-15 6 -16 22 0 9 9 12 9 12 0 0 -7 -5 -12 -11 -12 -5 0 -7 -5 -4 -10 4 -6 12
-7 18 -3 18 11 47 14 47 4 0 -8 47 -8 80 0 9 2 14 -2 12 -11 -1 -10 2 -9 13 4
8 11 15 15 15 8 0 -6 6 -9 14 -6 8 3 17 0 21 -5 9 -15 27 -3 18 12 -3 7 3 4
14 -6 11 -9 23 -14 26 -10 4 3 7 1 7 -6 0 -8 -6 -11 -16 -7 -10 4 -13 2 -8 -7
4 -6 4 -9 -1 -5 -4 4 -14 1 -21 -7 -20 -19 -17 -30 3 -14 13 11 17 11 20 2 3
-7 9 -13 15 -13 6 0 4 7 -3 17 -12 15 -12 16 6 9 34 -13 56 -15 50 -5 -4 5
-10 7 -14 4 -5 -2 -13 7 -20 21 -15 34 -14 36 8 29 11 -3 22 -1 26 5 3 6 11 8
16 5 5 -4 15 -3 21 2 20 12 38 12 38 1 0 -6 -8 -7 -17 -4 -17 6 -17 5 0 -8 13
-10 15 -15 5 -19 -8 -2 -9 -8 -4 -13 5 -5 11 -4 13 4 4 10 8 10 21 0 12 -9 11
-6 -2 10 -11 12 -14 22 -8 22 6 0 18 -10 26 -22 9 -12 19 -18 23 -14 4 4 0 12
-10 17 -9 6 -17 17 -17 25 0 9 -5 12 -12 8 -7 -5 -8 -3 -3 5 5 9 12 7 26 -8
12 -12 29 -19 42 -17 12 2 28 -2 36 -8 9 -7 8 -1 -3 17 -11 16 -14 27 -7 27 6
0 11 -5 11 -11 0 -5 5 -7 11 -4 6 4 8 14 5 24 -4 11 -2 11 10 -4 13 -16 15
-16 11 -3 -3 10 -2 20 3 23 5 3 11 -3 13 -12 4 -16 5 -16 6 1 1 11 6 16 14 13
7 -3 24 4 38 14 13 10 20 19 14 19 -5 0 -4 4 4 9 7 5 10 14 6 21 -5 8 -12 7
-24 -4 -10 -9 -20 -14 -23 -11 -2 3 -5 -2 -5 -10 0 -11 4 -12 13 -4 7 5 15 6
17 1 3 -4 -3 -13 -14 -20 -16 -10 -27 -3 -16 11 1 2 -4 12 -12 21 -11 13 -12
19 -2 29 10 9 11 9 6 -4 -4 -10 0 -16 10 -16 9 0 14 6 11 13 -6 14 31 60 40
51 4 -4 -4 -15 -17 -26 -26 -22 -19 -27 13 -10 11 6 18 7 15 1 -4 -5 0 -18 8
-28 15 -19 15 -19 8 0 -5 14 -3 17 6 11 8 -4 7 2 -3 17 -9 14 -13 28 -9 32 4
3 12 -3 18 -15 11 -19 13 -19 18 -5 4 10 3 15 -2 12 -19 -12 -19 48 0 69 44
47 69 81 69 93 0 6 5 12 10 12 6 0 10 -4 10 -9 0 -6 -4 -13 -10 -16 -5 -3 -10
-10 -10 -16 0 -5 5 -9 10 -9 6 0 10 8 10 18 0 15 2 15 11 2 8 -12 9 -10 4 8
-5 16 -2 22 9 22 9 0 15 3 15 8 -1 4 -1 14 0 22 1 13 2 13 11 0 5 -8 10 -10
10 -4 0 6 -3 13 -6 17 -8 8 -35 -3 -29 -13 3 -4 -3 -14 -12 -21 -14 -12 -15
-11 -8 11 4 14 12 30 19 35 14 13 19 35 6 35 -5 0 -15 -10 -21 -22 -7 -13 -15
-25 -18 -28 -3 -3 -11 -14 -17 -24 -6 -11 -17 -22 -25 -25 -9 -3 -8 1 4 13 16
16 21 30 18 49 -1 4 6 10 14 13 8 3 12 11 8 17 -4 6 -1 7 7 2 10 -6 12 -4 7 8
-8 22 2 49 16 40 6 -3 7 -1 3 5 -11 18 5 82 20 82 7 0 16 4 19 10 3 5 0 7 -9
4 -12 -5 -14 0 -10 23 3 15 6 36 7 46 1 9 4 17 7 17 3 0 4 16 2 36 -3 26 -1
35 7 30 6 -4 11 -2 11 3 0 6 -4 11 -10 11 -5 0 -10 12 -10 26 0 14 4 23 10 19
6 -3 10 -1 10 4 0 6 -8 11 -17 12 -11 0 -13 3 -6 6 9 3 10 10 4 21 -4 9 -11
35 -15 57 -5 35 -4 37 6 15 6 -14 10 -30 9 -37 -2 -17 16 -26 25 -12 4 8 3 9
-5 5 -8 -5 -10 0 -7 18 3 14 1 26 -3 26 -14 0 -29 78 -17 91 8 9 8 10 -1 5
-11 -6 -44 44 -53 79 -2 6 -9 15 -16 20 -7 6 -14 17 -16 25 -2 8 -11 21 -21
29 -10 7 -16 20 -13 28 3 8 2 11 -4 8 -5 -3 -15 1 -22 10 -55 65 -262 195
-310 195 -10 0 -18 5 -18 10 0 13 32 5 107 -26 32 -13 57 -29 55 -35 -1 -6 1
-8 6 -5 11 6 62 -16 62 -26 0 -5 7 -8 15 -8 20 0 195 -175 195 -194 0 -8 4
-16 9 -18 10 -4 82 -153 80 -165 -1 -4 0 -15 4 -23 21 -56 25 -80 14 -80 -8 0
-8 -3 1 -12 7 -7 12 -26 12 -42 0 -23 3 -27 9 -16 6 8 8 17 6 20 -2 3 -6 23
-9 45 -37 236 -197 448 -417 553 -37 18 -72 32 -78 32 -6 0 -11 5 -11 11 0 6
-6 9 -12 6 -7 -2 -35 3 -63 11 -63 18 -253 22 -325 7z m94 -3 c2 -4 -5 -9 -17
-9 -12 -1 -38 -5 -57 -8 -19 -4 -32 -4 -29 -1 3 4 26 10 50 15 24 5 45 9 46
10 1 1 4 -3 7 -7z m70 -2 c-9 -8 -53 -7 -48 2 3 4 16 7 29 6 13 -1 22 -5 19
-8z m160 -21 c8 -7 4 -9 -15 -4 -42 10 -63 13 -96 14 -18 1 -33 5 -33 9 0 12
131 -5 144 -19z m-754 -232 c0 -2 -10 -12 -22 -23 l-23 -19 19 23 c18 21 26
27 26 19z m-173 -286 c0 -11 -5 -18 -9 -15 -4 3 -5 11 -1 19 7 21 12 19 10 -4z
m3 -46 c0 -12 -19 -12 -23 0 -4 9 -1 12 9 8 7 -3 14 -7 14 -8z m-10 -49 c0 -3
-4 -8 -10 -11 -5 -3 -10 -1 -10 4 0 6 5 11 10 11 6 0 10 -2 10 -4z m-6 -76
c-6 -6 -10 -3 -10 10 0 13 4 16 10 10 7 -7 7 -13 0 -20z m3 -52 c-3 -7 -5 -2
-5 12 0 14 2 19 5 13 2 -7 2 -19 0 -25z m2 -102 c9 -11 9 -16 -1 -22 -7 -4
-10 -4 -6 1 4 4 3 14 -3 22 -6 7 -9 13 -6 13 2 0 10 -6 16 -14z m56 -176 c-3
-5 -1 -10 6 -10 7 0 10 -3 6 -6 -9 -9 -28 6 -22 17 4 5 8 9 11 9 3 0 2 -4 -1
-10z m1260 -80 c-3 -5 -11 -10 -16 -10 -6 0 -7 5 -4 10 3 6 11 10 16 10 6 0 7
-4 4 -10z m-1160 -40 c3 -6 -1 -7 -9 -4 -18 7 -21 14 -7 14 6 0 13 -4 16 -10z
m1110 -19 c-3 -6 -11 -11 -16 -11 -5 0 -4 6 3 14 14 16 24 13 13 -3z m-1076
-85 c-3 -3 -11 5 -18 17 -13 21 -12 21 5 5 10 -10 16 -20 13 -22z m120 -35 c2
-1 -3 -8 -10 -17 -12 -15 -11 -16 11 -10 19 6 21 5 10 -3 -13 -10 -13 -11 0
-11 13 0 13 -1 0 -10 -11 -7 -21 -2 -36 18 -30 36 -25 43 25 33z m841 -41 c6
-11 8 -21 5 -21 -17 -4 -26 -7 -30 -9 -3 -1 -11 -3 -17 -4 -7 -1 -12 -7 -11
-13 1 -6 -5 -10 -15 -9 -12 1 -16 -5 -14 -19 2 -16 1 -17 -7 -6 -5 8 -17 16
-26 17 -25 4 -31 14 -9 15 39 1 58 8 66 23 5 9 18 16 28 16 22 0 27 16 8 23
-10 4 -10 6 -1 6 7 1 17 -8 23 -19z m-70 -15 c-7 -9 -15 -13 -18 -11 -2 3 -14
1 -26 -5 -20 -10 -20 -9 -2 5 10 9 22 13 27 11 4 -3 10 -1 14 5 3 5 9 10 12
10 3 0 0 -7 -7 -15z m-30 -67 c0 -4 -4 -8 -9 -8 -6 0 -12 4 -15 8 -3 5 1 9 9
9 8 0 15 -4 15 -9z"/>
<path d="M436 348 c3 -5 10 -6 15 -3 13 9 11 12 -6 12 -8 0 -12 -4 -9 -9z"/>
<path d="M553 1658 c-13 -6 -23 -15 -23 -20 0 -5 -4 -6 -10 -3 -5 3 -10 1 -10
-5 0 -6 -4 -9 -8 -6 -11 6 -92 -52 -92 -65 0 -6 -4 -8 -8 -5 -11 7 -95 -79
-98 -99 -2 -13 1 -14 12 -4 7 6 12 14 10 18 -5 8 20 31 28 25 3 -2 4 -1 1 2
-4 7 24 39 35 39 4 0 21 14 38 30 18 17 37 30 42 30 6 0 14 6 19 13 5 8 11 13
15 13 15 -2 23 1 51 24 33 27 32 29 -2 13z"/>
<path d="M275 1434 c-4 -10 -7 -25 -6 -33 1 -7 -2 -10 -8 -7 -5 4 -12 2 -15
-3 -4 -5 2 -8 11 -7 10 2 18 9 18 17 0 8 4 17 9 20 5 4 6 13 4 20 -3 9 -7 7
-13 -7z"/>
<path d="M1616 1053 c-6 -14 -5 -15 5 -6 7 7 10 15 7 18 -3 3 -9 -2 -12 -12z"/>
<path d="M1626 1005 c-11 -8 -15 -15 -9 -15 6 0 16 7 23 15 16 19 11 19 -14 0z"/>
<path d="M1616 933 c-6 -14 -5 -15 5 -6 7 7 10 15 7 18 -3 3 -9 -2 -12 -12z"/>
<path d="M1642 880 c0 -14 2 -19 5 -12 2 6 2 18 0 25 -3 6 -5 1 -5 -13z"/>
<path d="M1599 869 c-8 -16 -8 -24 1 -33 8 -8 9 -6 4 8 -5 13 -4 17 4 12 6 -3
14 -1 18 5 5 8 3 9 -6 4 -10 -6 -12 -4 -7 8 9 24 0 21 -14 -4z"/>
<path d="M1631 804 c0 -11 3 -14 6 -6 3 7 2 16 -1 19 -3 4 -6 -2 -5 -13z"/>
<path d="M115 765 c0 -13 3 -21 8 -18 4 2 7 10 7 18 0 8 -3 16 -7 18 -5 3 -8
-5 -8 -18z"/>
<path d="M1590 770 c-8 -15 -8 -18 3 -14 8 3 14 11 14 19 0 20 -4 19 -17 -5z"/>
<path d="M1621 763 c-1 -12 -9 -24 -18 -26 -17 -4 -17 -5 0 -6 19 -1 32 21 24
41 -3 7 -6 3 -6 -9z"/>
<path d="M1566 737 c3 -10 9 -15 12 -12 3 3 0 11 -7 18 -10 9 -11 8 -5 -6z"/>
<path d="M130 699 c0 -5 5 -7 10 -4 6 3 10 8 10 11 0 2 -4 4 -10 4 -5 0 -10
-5 -10 -11z"/>
<path d="M1575 700 c3 -5 8 -10 11 -10 2 0 4 5 4 10 0 6 -5 10 -11 10 -5 0 -7
-4 -4 -10z"/>
<path d="M1605 699 c-4 -6 -5 -12 -2 -15 2 -3 7 2 10 11 7 17 1 20 -8 4z"/>
<path d="M1585 649 c-4 -6 -4 -13 -1 -16 3 -4 6 -1 6 6 0 7 5 9 12 5 7 -4 8
-3 4 4 -9 15 -13 15 -21 1z"/>
<path d="M146 641 c-4 -5 4 -7 16 -3 16 4 19 2 13 -8 -5 -9 -4 -11 4 -6 6 4 9
12 6 17 -8 12 -32 12 -39 0z"/>
<path d="M174 561 c0 -16 4 -27 8 -25 4 2 5 14 3 26 -7 32 -13 32 -11 -1z"/>
<path d="M214 565 c-7 -17 10 -35 31 -35 6 1 2 5 -7 11 -20 11 -24 29 -7 29 5
0 7 -4 4 -10 -3 -5 -1 -10 5 -10 15 0 8 22 -8 28 -7 2 -15 -4 -18 -13z"/>
<path d="M193 505 c0 -8 4 -12 9 -9 5 3 6 10 3 15 -9 13 -12 11 -12 -6z"/>
<path d="M1485 500 c-14 -15 -15 -20 -4 -20 8 0 -1 -8 -18 -16 -32 -16 -44
-34 -22 -34 5 0 7 -5 3 -12 -4 -7 -3 -8 5 -4 6 4 9 12 6 17 -8 11 55 50 68 42
6 -3 7 -1 3 5 -4 6 -14 8 -24 5 -15 -6 -15 -5 -3 10 20 25 8 31 -14 7z"/>
<path d="M1527 499 c7 -7 15 -10 18 -7 3 3 -2 9 -12 12 -14 6 -15 5 -6 -5z"/>
<path d="M1513 440 c1 -21 10 -18 13 5 1 8 -2 15 -6 15 -5 0 -8 -9 -7 -20z"/>
<path d="M1465 440 c-3 -5 -1 -10 6 -10 8 0 7 -5 -2 -17 -13 -16 -12 -17 3 -5
9 8 14 20 11 28 -6 17 -10 17 -18 4z"/>
<path d="M1455 379 c-4 -6 -5 -12 -2 -15 2 -3 7 2 10 11 7 17 1 20 -8 4z"/>
<path d="M336 341 c-3 -4 6 -6 19 -3 14 2 25 6 25 8 0 8 -39 4 -44 -5z"/>
<path d="M493 287 c-7 -12 18 -28 35 -22 17 6 15 -5 -4 -26 -12 -13 -12 -19
-3 -25 7 -4 10 -3 5 4 -7 12 9 25 36 29 12 2 16 -3 13 -18 -3 -14 0 -19 9 -16
21 8 28 -4 13 -22 -11 -14 -10 -15 7 -1 18 14 19 13 12 -5 -6 -16 -5 -17 5 -8
10 10 9 15 -1 28 -8 9 -8 15 -2 15 6 0 17 -9 25 -20 12 -18 15 -18 20 -5 4 8
12 15 19 15 9 0 9 -3 0 -12 -16 -16 -15 -25 2 -25 8 0 12 6 9 14 -7 18 5 17
24 -2 11 -12 19 -13 28 -5 10 8 16 7 24 -7 6 -11 11 -13 11 -5 0 7 4 11 9 7 5
-3 12 -1 16 5 3 5 11 10 18 10 8 0 8 -3 -1 -12 -7 -7 -12 -17 -12 -22 0 -6 5
-4 10 4 6 10 10 11 10 3 0 -18 29 -16 36 2 4 8 10 15 15 15 6 0 5 -9 -1 -21
-7 -11 -9 -23 -6 -27 3 -3 6 0 6 6 0 6 6 10 13 8 6 -1 9 -1 5 1 -17 10 -7 23
15 20 14 -1 21 3 19 12 -2 8 3 11 12 8 8 -3 20 2 28 11 12 15 11 16 -4 4 -11
-9 -18 -9 -23 -3 -6 11 -40 10 -51 -2 -13 -13 -26 -7 -20 8 4 12 2 13 -12 7
-15 -8 -73 -9 -79 -2 -7 7 -29 5 -40 -2 -6 -5 -14 -5 -17 1 -4 6 -14 7 -23 4
-12 -5 -14 -3 -8 7 6 9 4 11 -5 5 -8 -5 -18 -1 -27 10 -7 11 -13 15 -13 11 0
-5 -7 -3 -15 4 -8 7 -15 10 -15 6 0 -4 -12 0 -27 7 -16 8 -34 12 -41 10 -7 -3
-11 1 -10 7 4 15 -40 21 -49 7z m37 -11 c-7 -7 -13 -7 -20 0 -6 6 -3 10 10 10
13 0 16 -4 10 -10z m95 -36 c21 -5 46 -28 36 -34 -5 -4 -16 3 -24 15 -9 12
-18 16 -21 10 -9 -14 -33 -4 -33 14 0 10 5 11 16 5 9 -4 21 -9 26 -10z m119
-41 c5 8 27 8 46 1 3 -1 10 -1 15 0 6 1 6 -2 2 -6 -12 -12 -36 -13 -43 -3 -4
6 -11 6 -19 -1 -9 -7 -16 -6 -26 7 -13 16 -12 17 3 5 10 -8 19 -9 22 -3z m123
-14 c5 -4 2 -5 -6 0 -11 6 -13 4 -8 -9 5 -11 3 -16 -5 -14 -16 6 -19 36 -2 34
7 -1 17 -6 21 -11z m60 -2 c0 -7 -4 -13 -9 -13 -4 0 -8 5 -8 11 0 5 -5 7 -12
3 -6 -4 -8 -3 -5 3 9 14 34 12 34 -4z"/>
<path d="M470 271 c0 -7 -5 -9 -12 -5 -7 5 -8 3 -3 -5 5 -9 10 -10 18 -2 6 6
8 14 4 18 -4 3 -7 1 -7 -6z"/>
<path d="M1054 218 c-4 -5 -12 -7 -20 -4 -8 3 -11 0 -8 -9 3 -8 11 -13 17 -12
6 1 17 -9 25 -23 13 -23 13 -24 9 -2 -5 21 6 31 16 15 2 -5 3 -3 1 3 -1 6 3
17 9 23 6 6 9 11 7 12 -30 5 -52 4 -56 -3z m30 -15 c-9 -7 -21 -10 -26 -7 -14
9 -1 20 22 20 20 0 20 -1 4 -13z"/>
<path d="M1230 200 c0 -5 5 -10 11 -10 5 0 7 5 4 10 -3 6 -8 10 -11 10 -2 0
-4 -4 -4 -10z"/>
<path d="M1130 180 c0 -5 5 -10 11 -10 5 0 7 5 4 10 -3 6 -8 10 -11 10 -2 0
-4 -4 -4 -10z"/>
<path d="M713 155 c0 -8 4 -12 9 -9 5 3 6 10 3 15 -9 13 -12 11 -12 -6z"/>
<path d="M751 154 c0 -11 3 -14 6 -6 3 7 2 16 -1 19 -3 4 -6 -2 -5 -13z"/>
<path d="M790 151 c0 -6 4 -13 10 -16 6 -3 7 1 4 9 -7 18 -14 21 -14 7z"/>
<path d="M920 146 c0 -2 7 -7 16 -10 8 -3 12 -2 9 4 -6 10 -25 14 -25 6z"/>
</g>
</svg>
